<?xml version="1.0" encoding="utf-8"?>
<!-- Generator: Adobe Illustrator 22.0.1, SVG Export Plug-In . SVG Version: 6.00 Build 0)  -->
<svg version="1.1" id="Слой_1" xmlns="http://www.w3.org/2000/svg" xmlns:xlink="http://www.w3.org/1999/xlink" x="0px" y="0px"
	 viewBox="0 0 272.9 58" style="enable-background:new 0 0 272.9 58;" xml:space="preserve">
<style type="text/css">
	.st0{fill:#001F9A;}
</style>
<g>
	<path class="st0" d="M136.3,56.9c-4.5,0-9,0-13.5,0c0-0.3,0-0.6,0-0.9c0-7.1,0-14.1,0-21.2c0-3.6-2.4-6-5.9-6c-0.9,0-1.7,0-2.7,0
		c0,9.4,0,18.7,0,28c-4.5,0-9,0-13.4,0c0-13.7,0-27.4,0-41.1c0.3,0,0.6,0,0.9,0c5.2,0,10.4,0,15.6,0c4.6,0,8.8,1.3,12.1,4.6
		c0,0,0.1,0.1,0.2,0.1c0.9-0.8,1.9-1.6,2.8-2.4c7.2-5.6,16.1-3.5,21.3,1.4c3.3,3,4.8,6.8,4.8,11.3c0,8.5,0,16.9,0,25.4
		c0,0.2,0,0.4,0,0.7c-4.5,0-9,0-13.5,0c0-0.3,0-0.6,0-0.9c0-7.9,0-15.8,0-23.7c0-2.3-1.6-4.1-3.8-4.3c-2.2-0.3-4.2,1.2-4.7,3.4
		c-0.1,0.3-0.1,0.7-0.1,1.1c0,7.8,0,15.7,0,23.5C136.3,56.2,136.3,56.5,136.3,56.9z"/>
	<path class="st0" d="M179.9,28.8c0,9.4,0,18.7,0,28c-4.5,0-9,0-13.5,0c0-13.7,0-27.3,0-41.1c0.3,0,0.5,0,0.8,0c5.3,0,10.6,0,15.9,0
		c4.5,0,8.6,1.3,11.9,4.6c0,0.1,0.1,0.1,0.2,0.1c1-0.8,1.9-1.7,2.9-2.5c6.7-5.2,14.9-3.7,20.3,0.7c3.8,3.1,5.7,7.1,5.7,12
		c0,8.4,0,16.8,0,25.2c0,0.3,0,0.6,0,0.9c-4.5,0-9,0-13.5,0c0-0.3,0-0.6,0-0.9c0-7.9,0-15.7,0-23.6c0-2.3-1.4-4.2-3.5-4.6
		c-2.7-0.5-5.1,1.4-5.1,4.2c0,1.7,0,3.4,0,5.1c0,6.2,0,12.5,0,18.7c0,0.3,0,0.6,0,0.9c-4.5,0-9,0-13.5,0c0-0.3,0-0.6,0-0.8
		c0-7.1,0-14.1,0-21.2c0-3.6-2.4-6-6-6C181.7,28.8,180.9,28.8,179.9,28.8z"/>
	<path class="st0" d="M15.9,45.5c0,2.9,0,5.9,0,8.8c0,2.3-1.3,3.6-3.6,3.6c-2.9,0-5.9,0-8.8,0c-2,0-3.4-1.2-3.4-3.2
		c0-5.1-0.1-10.2,0.1-15.3c0.3-5.4,5.1-10.3,10.5-10.9c1.3-0.2,2.6-0.1,3.9-0.1c0.7,0,1.1-0.2,1.4-0.8C21.1,20.3,26.2,13,31.3,5.6
		C33.9,1.9,37.5,0,42,0c3.4,0,6.8,0,10.2,0c0.5,0,1,0,1.3,0.5c0.3,0.5,0,1-0.3,1.4C48,9.4,42.9,16.8,37.7,24.3c-2.1,3-2.1,6.1,0,9.1
		c5.2,7.5,10.4,15,15.7,22.5c0.1,0.2,0.3,0.3,0.4,0.5c0.4,0.7,0,1.5-0.8,1.5c-4.1,0-8.2,0.1-12.3-0.1c-3.8-0.2-6.7-2.2-8.9-5.3
		c-4-5.7-7.9-11.3-11.8-17c-0.1-0.2-0.2-0.3-0.3-0.5c-0.6-0.8-1.5-1.1-2.3-0.8c-0.8,0.3-1.3,1-1.3,2C15.9,39.4,15.9,42.4,15.9,45.5z
		"/>
	<path class="st0" d="M94.5,36.3c0.1,12-10.3,21.8-21.2,21.7C60.6,58,51.7,46.4,52,36.1c0.3-10.5,8.9-21.4,22-21.3
		C84.5,14.9,94.6,25.2,94.5,36.3z M81.4,36.6c0-0.5,0-1-0.1-1.4c-0.1-0.6-0.2-1.1-0.4-1.7c-2-5.8-8.7-7.7-13.1-3.6
		c-2.9,2.7-4,8.2-0.7,12.4c2.6,3.3,7.2,3.9,10.7,1.5C80.2,42,81.3,39.5,81.4,36.6z"/>
	<path class="st0" d="M272.9,36c-0.3,12.5-10,22.5-22.4,22.1c-10.3-0.4-20.8-10.3-20.1-22.8c0.5-9.6,8.9-21,22.5-20.4
		C263.1,15.3,273,25.1,272.9,36z M243.4,36.2c0.1,2,0.5,3.7,1.5,5.2c3.1,4.9,10,5,13.3,0.3c2.3-3.4,2.2-7.8-0.4-11
		c-2.5-3.2-7.1-4-10.5-1.8C244.8,30.7,243.5,33.2,243.4,36.2z"/>
</g>
</svg>
